<mxfile host="app.diagrams.net" agent="Mozilla/5.0 (Windows NT 10.0; Win64; x64) AppleWebKit/537.36 (KHTML, like Gecko) Chrome/127.0.0.0 Safari/537.36" version="24.7.7">
  <diagram name="Page-1" id="0tDWTy93jnOJprLxZmwF">
    <mxGraphModel grid="1" page="1" gridSize="10" guides="1" tooltips="1" connect="1" arrows="1" fold="1" pageScale="1" pageWidth="850" pageHeight="1100" math="0" shadow="0">
      <root>
        <mxCell id="0" />
        <mxCell id="1" parent="0" />
        <mxCell id="XQm2vaN1HJOsB2WM8zEt-5" value="&lt;p style=&quot;margin:0px;margin-top:4px;text-align:center;&quot;&gt;&lt;b&gt;CUSTOMER&lt;/b&gt;&lt;/p&gt;&lt;hr size=&quot;1&quot; style=&quot;border-style:solid;&quot;&gt;&lt;div style=&quot;height:2px;&quot;&gt;&lt;/div&gt;" style="verticalAlign=top;align=left;overflow=fill;html=1;whiteSpace=wrap;" vertex="1" parent="1">
          <mxGeometry x="190" y="20" width="220" height="980" as="geometry" />
        </mxCell>
        <mxCell id="XQm2vaN1HJOsB2WM8zEt-6" value="&lt;p style=&quot;margin:0px;margin-top:4px;text-align:center;&quot;&gt;&lt;b&gt;SYSTEM&lt;/b&gt;&lt;/p&gt;&lt;hr size=&quot;1&quot; style=&quot;border-style:solid;&quot;&gt;&lt;div style=&quot;height:2px;&quot;&gt;&lt;/div&gt;" style="verticalAlign=top;align=left;overflow=fill;html=1;whiteSpace=wrap;" vertex="1" parent="1">
          <mxGeometry x="410" y="20" width="200" height="980" as="geometry" />
        </mxCell>
        <mxCell id="XQm2vaN1HJOsB2WM8zEt-7" value="" style="ellipse;html=1;shape=startState;fillColor=#000000;strokeColor=#ff0000;" vertex="1" parent="1">
          <mxGeometry x="290" y="50" width="30" height="30" as="geometry" />
        </mxCell>
        <mxCell id="XQm2vaN1HJOsB2WM8zEt-8" value="" style="edgeStyle=orthogonalEdgeStyle;html=1;verticalAlign=bottom;endArrow=open;endSize=8;strokeColor=#ff0000;rounded=0;" edge="1" parent="1" source="XQm2vaN1HJOsB2WM8zEt-7">
          <mxGeometry relative="1" as="geometry">
            <mxPoint x="305" y="110" as="targetPoint" />
          </mxGeometry>
        </mxCell>
        <mxCell id="XQm2vaN1HJOsB2WM8zEt-9" value="" style="rounded=1;whiteSpace=wrap;html=1;" vertex="1" parent="1">
          <mxGeometry x="270.5" y="110" width="67.5" height="30" as="geometry" />
        </mxCell>
        <mxCell id="XQm2vaN1HJOsB2WM8zEt-10" value="" style="rounded=1;whiteSpace=wrap;html=1;" vertex="1" parent="1">
          <mxGeometry x="476.25" y="110" width="67.5" height="30" as="geometry" />
        </mxCell>
        <mxCell id="XQm2vaN1HJOsB2WM8zEt-11" value="search for product" style="rounded=1;whiteSpace=wrap;html=1;" vertex="1" parent="1">
          <mxGeometry x="270.5" y="190" width="67.5" height="30" as="geometry" />
        </mxCell>
        <mxCell id="XQm2vaN1HJOsB2WM8zEt-12" value="Product Availble" style="rhombus;whiteSpace=wrap;html=1;" vertex="1" parent="1">
          <mxGeometry x="476.25" y="170" width="70" height="70" as="geometry" />
        </mxCell>
        <mxCell id="XQm2vaN1HJOsB2WM8zEt-13" value="Display Available Product" style="rounded=1;whiteSpace=wrap;html=1;" vertex="1" parent="1">
          <mxGeometry x="460" y="320" width="85" height="50" as="geometry" />
        </mxCell>
        <mxCell id="XQm2vaN1HJOsB2WM8zEt-14" value="Select product and quantity" style="rounded=1;whiteSpace=wrap;html=1;" vertex="1" parent="1">
          <mxGeometry x="264.25" y="290" width="78.75" height="50" as="geometry" />
        </mxCell>
        <mxCell id="XQm2vaN1HJOsB2WM8zEt-15" value="Start" style="text;html=1;align=center;verticalAlign=middle;whiteSpace=wrap;rounded=0;" vertex="1" parent="1">
          <mxGeometry x="274.25" y="110" width="60" height="30" as="geometry" />
        </mxCell>
        <mxCell id="XQm2vaN1HJOsB2WM8zEt-16" value="Show interface&lt;span style=&quot;color: rgba(0, 0, 0, 0); font-family: monospace; font-size: 0px; text-align: start; text-wrap: nowrap;&quot;&gt;%3CmxGraphModel%3E%3Croot%3E%3CmxCell%20id%3D%220%22%2F%3E%3CmxCell%20id%3D%221%22%20parent%3D%220%22%2F%3E%3CmxCell%20id%3D%222%22%20value%3D%22Start%22%20style%3D%22text%3Bhtml%3D1%3Balign%3Dcenter%3BverticalAlign%3Dmiddle%3BwhiteSpace%3Dwrap%3Brounded%3D0%3B%22%20vertex%3D%221%22%20parent%3D%221%22%3E%3CmxGeometry%20x%3D%22280%22%20y%3D%22550%22%20width%3D%2260%22%20height%3D%2230%22%20as%3D%22geometry%22%2F%3E%3C%2FmxCell%3E%3C%2Froot%3E%3C%2FmxGraphModel%3E&lt;/span&gt;" style="text;html=1;align=center;verticalAlign=middle;whiteSpace=wrap;rounded=0;" vertex="1" parent="1">
          <mxGeometry x="480" y="110" width="60" height="30" as="geometry" />
        </mxCell>
        <mxCell id="XQm2vaN1HJOsB2WM8zEt-18" value="" style="endArrow=open;endFill=1;endSize=12;html=1;rounded=0;exitX=1;exitY=0.5;exitDx=0;exitDy=0;entryX=0;entryY=0.5;entryDx=0;entryDy=0;" edge="1" parent="1" source="XQm2vaN1HJOsB2WM8zEt-9" target="XQm2vaN1HJOsB2WM8zEt-10">
          <mxGeometry width="160" relative="1" as="geometry">
            <mxPoint x="240" y="410" as="sourcePoint" />
            <mxPoint x="400" y="410" as="targetPoint" />
          </mxGeometry>
        </mxCell>
        <mxCell id="XQm2vaN1HJOsB2WM8zEt-27" value="" style="endArrow=open;endFill=1;endSize=12;html=1;rounded=0;exitX=0.5;exitY=1;exitDx=0;exitDy=0;entryX=0.5;entryY=0;entryDx=0;entryDy=0;" edge="1" parent="1" source="XQm2vaN1HJOsB2WM8zEt-16" target="XQm2vaN1HJOsB2WM8zEt-11">
          <mxGeometry width="160" relative="1" as="geometry">
            <mxPoint x="510" y="140" as="sourcePoint" />
            <mxPoint x="304" y="190" as="targetPoint" />
            <Array as="points">
              <mxPoint x="510" y="160" />
              <mxPoint x="304" y="160" />
            </Array>
          </mxGeometry>
        </mxCell>
        <mxCell id="XQm2vaN1HJOsB2WM8zEt-30" value="" style="endArrow=open;endFill=1;endSize=12;html=1;rounded=0;exitX=1;exitY=0.5;exitDx=0;exitDy=0;entryX=0;entryY=0.5;entryDx=0;entryDy=0;" edge="1" parent="1" source="XQm2vaN1HJOsB2WM8zEt-11" target="XQm2vaN1HJOsB2WM8zEt-12">
          <mxGeometry width="160" relative="1" as="geometry">
            <mxPoint x="348" y="135" as="sourcePoint" />
            <mxPoint x="486" y="135" as="targetPoint" />
          </mxGeometry>
        </mxCell>
        <mxCell id="XQm2vaN1HJOsB2WM8zEt-35" value="" style="endArrow=open;endFill=1;endSize=12;html=1;rounded=0;exitX=0.5;exitY=1;exitDx=0;exitDy=0;entryX=0.5;entryY=1;entryDx=0;entryDy=0;" edge="1" parent="1" source="XQm2vaN1HJOsB2WM8zEt-12">
          <mxGeometry width="160" relative="1" as="geometry">
            <mxPoint x="513.25" y="240" as="sourcePoint" />
            <mxPoint x="306.24999999999994" y="220" as="targetPoint" />
            <Array as="points">
              <mxPoint x="511" y="260" />
              <mxPoint x="306" y="260" />
            </Array>
          </mxGeometry>
        </mxCell>
        <mxCell id="XQm2vaN1HJOsB2WM8zEt-39" value="" style="endArrow=open;endFill=1;endSize=12;html=1;rounded=0;exitX=1;exitY=0.5;exitDx=0;exitDy=0;entryX=1;entryY=0.5;entryDx=0;entryDy=0;" edge="1" parent="1" source="XQm2vaN1HJOsB2WM8zEt-12" target="XQm2vaN1HJOsB2WM8zEt-13">
          <mxGeometry width="160" relative="1" as="geometry">
            <mxPoint x="348" y="135" as="sourcePoint" />
            <mxPoint x="486" y="135" as="targetPoint" />
            <Array as="points">
              <mxPoint x="580" y="205" />
              <mxPoint x="580" y="345" />
            </Array>
          </mxGeometry>
        </mxCell>
        <mxCell id="XQm2vaN1HJOsB2WM8zEt-40" value="" style="endArrow=open;endFill=1;endSize=12;html=1;rounded=0;exitX=0;exitY=0.5;exitDx=0;exitDy=0;entryX=1;entryY=0.5;entryDx=0;entryDy=0;" edge="1" parent="1" source="XQm2vaN1HJOsB2WM8zEt-13" target="XQm2vaN1HJOsB2WM8zEt-14">
          <mxGeometry width="160" relative="1" as="geometry">
            <mxPoint x="348" y="135" as="sourcePoint" />
            <mxPoint x="486" y="135" as="targetPoint" />
            <Array as="points">
              <mxPoint x="440" y="345" />
              <mxPoint x="440" y="315" />
              <mxPoint x="370" y="315" />
            </Array>
          </mxGeometry>
        </mxCell>
        <mxCell id="XQm2vaN1HJOsB2WM8zEt-41" value="Add Product to Cart" style="rounded=1;whiteSpace=wrap;html=1;" vertex="1" parent="1">
          <mxGeometry x="463.13" y="414" width="78.75" height="50" as="geometry" />
        </mxCell>
        <mxCell id="XQm2vaN1HJOsB2WM8zEt-42" value="" style="endArrow=open;endFill=1;endSize=12;html=1;rounded=0;exitX=0.456;exitY=0.996;exitDx=0;exitDy=0;entryX=0;entryY=0.5;entryDx=0;entryDy=0;exitPerimeter=0;" edge="1" parent="1" source="XQm2vaN1HJOsB2WM8zEt-14">
          <mxGeometry width="160" relative="1" as="geometry">
            <mxPoint x="325.13" y="440" as="sourcePoint" />
            <mxPoint x="463.13" y="440" as="targetPoint" />
            <Array as="points">
              <mxPoint x="300" y="440" />
            </Array>
          </mxGeometry>
        </mxCell>
        <mxCell id="XQm2vaN1HJOsB2WM8zEt-43" value="Order Again?" style="rhombus;whiteSpace=wrap;html=1;" vertex="1" parent="1">
          <mxGeometry x="467.5" y="500" width="70" height="70" as="geometry" />
        </mxCell>
        <mxCell id="XQm2vaN1HJOsB2WM8zEt-44" value="" style="endArrow=open;endFill=1;endSize=12;html=1;rounded=0;exitX=0.5;exitY=1;exitDx=0;exitDy=0;entryX=0.5;entryY=0;entryDx=0;entryDy=0;" edge="1" parent="1" source="XQm2vaN1HJOsB2WM8zEt-41" target="XQm2vaN1HJOsB2WM8zEt-43">
          <mxGeometry width="160" relative="1" as="geometry">
            <mxPoint x="280" y="520" as="sourcePoint" />
            <mxPoint x="418" y="520" as="targetPoint" />
          </mxGeometry>
        </mxCell>
        <mxCell id="XQm2vaN1HJOsB2WM8zEt-46" value="Proceed to Checkout" style="rounded=1;whiteSpace=wrap;html=1;" vertex="1" parent="1">
          <mxGeometry x="265.63" y="570" width="78.75" height="50" as="geometry" />
        </mxCell>
        <mxCell id="XQm2vaN1HJOsB2WM8zEt-47" value="" style="endArrow=open;endFill=1;endSize=12;html=1;rounded=0;exitX=0.5;exitY=1;exitDx=0;exitDy=0;entryX=1;entryY=0.5;entryDx=0;entryDy=0;" edge="1" parent="1" source="XQm2vaN1HJOsB2WM8zEt-43" target="XQm2vaN1HJOsB2WM8zEt-46">
          <mxGeometry width="160" relative="1" as="geometry">
            <mxPoint x="513" y="474" as="sourcePoint" />
            <mxPoint x="513" y="510" as="targetPoint" />
            <Array as="points">
              <mxPoint x="503" y="595" />
            </Array>
          </mxGeometry>
        </mxCell>
        <mxCell id="XQm2vaN1HJOsB2WM8zEt-48" value="Display Purchase information" style="rounded=1;whiteSpace=wrap;html=1;" vertex="1" parent="1">
          <mxGeometry x="463.13" y="620" width="78.75" height="50" as="geometry" />
        </mxCell>
        <mxCell id="XQm2vaN1HJOsB2WM8zEt-49" value="" style="endArrow=open;endFill=1;endSize=12;html=1;rounded=0;exitX=0.5;exitY=1;exitDx=0;exitDy=0;entryX=0;entryY=0.5;entryDx=0;entryDy=0;" edge="1" parent="1" source="XQm2vaN1HJOsB2WM8zEt-46" target="XQm2vaN1HJOsB2WM8zEt-48">
          <mxGeometry width="160" relative="1" as="geometry">
            <mxPoint x="304.37" y="635" as="sourcePoint" />
            <mxPoint x="467.5" y="735" as="targetPoint" />
            <Array as="points">
              <mxPoint x="305" y="645" />
            </Array>
          </mxGeometry>
        </mxCell>
        <mxCell id="XQm2vaN1HJOsB2WM8zEt-50" value="Select Payment Option" style="rounded=1;whiteSpace=wrap;html=1;" vertex="1" parent="1">
          <mxGeometry x="262.63" y="700" width="78.75" height="50" as="geometry" />
        </mxCell>
        <mxCell id="XQm2vaN1HJOsB2WM8zEt-52" value="Make Payment" style="rounded=1;whiteSpace=wrap;html=1;" vertex="1" parent="1">
          <mxGeometry x="263.25" y="780" width="78.75" height="50" as="geometry" />
        </mxCell>
        <mxCell id="XQm2vaN1HJOsB2WM8zEt-54" value="Order confirmed&amp;nbsp;" style="rounded=1;whiteSpace=wrap;html=1;" vertex="1" parent="1">
          <mxGeometry x="466.7" y="880" width="66.87" height="40" as="geometry" />
        </mxCell>
        <mxCell id="XQm2vaN1HJOsB2WM8zEt-57" value="Show Payment Option" style="rounded=1;whiteSpace=wrap;html=1;" vertex="1" parent="1">
          <mxGeometry x="461.25" y="700" width="78.75" height="50" as="geometry" />
        </mxCell>
        <mxCell id="XQm2vaN1HJOsB2WM8zEt-61" value="" style="endArrow=open;endFill=1;endSize=12;html=1;rounded=0;exitX=0.5;exitY=1;exitDx=0;exitDy=0;" edge="1" parent="1">
          <mxGeometry width="160" relative="1" as="geometry">
            <mxPoint x="500.72" y="670" as="sourcePoint" />
            <mxPoint x="501" y="700" as="targetPoint" />
          </mxGeometry>
        </mxCell>
        <mxCell id="XQm2vaN1HJOsB2WM8zEt-62" value="" style="endArrow=open;endFill=1;endSize=12;html=1;rounded=0;exitX=0;exitY=0.5;exitDx=0;exitDy=0;entryX=1;entryY=0.5;entryDx=0;entryDy=0;" edge="1" parent="1" source="XQm2vaN1HJOsB2WM8zEt-57" target="XQm2vaN1HJOsB2WM8zEt-50">
          <mxGeometry width="160" relative="1" as="geometry">
            <mxPoint x="523" y="484" as="sourcePoint" />
            <mxPoint x="523" y="520" as="targetPoint" />
          </mxGeometry>
        </mxCell>
        <mxCell id="XQm2vaN1HJOsB2WM8zEt-68" value="" style="endArrow=open;endFill=1;endSize=12;html=1;rounded=0;exitX=0.5;exitY=1;exitDx=0;exitDy=0;" edge="1" parent="1">
          <mxGeometry width="160" relative="1" as="geometry">
            <mxPoint x="303.83000000000004" y="750" as="sourcePoint" />
            <mxPoint x="304" y="780" as="targetPoint" />
          </mxGeometry>
        </mxCell>
        <mxCell id="XQm2vaN1HJOsB2WM8zEt-70" value="Payment done?" style="rhombus;whiteSpace=wrap;html=1;" vertex="1" parent="1">
          <mxGeometry x="465.13" y="770" width="70" height="70" as="geometry" />
        </mxCell>
        <mxCell id="XQm2vaN1HJOsB2WM8zEt-71" value="" style="endArrow=open;endFill=1;endSize=12;html=1;rounded=0;exitX=1;exitY=0.5;exitDx=0;exitDy=0;entryX=0;entryY=0.5;entryDx=0;entryDy=0;" edge="1" parent="1" source="XQm2vaN1HJOsB2WM8zEt-52" target="XQm2vaN1HJOsB2WM8zEt-70">
          <mxGeometry width="160" relative="1" as="geometry">
            <mxPoint x="313.83000000000004" y="760" as="sourcePoint" />
            <mxPoint x="314" y="790" as="targetPoint" />
          </mxGeometry>
        </mxCell>
        <mxCell id="XQm2vaN1HJOsB2WM8zEt-74" value="" style="endArrow=open;endFill=1;endSize=12;html=1;rounded=0;exitX=1;exitY=0.5;exitDx=0;exitDy=0;entryX=1;entryY=0.5;entryDx=0;entryDy=0;" edge="1" parent="1" source="XQm2vaN1HJOsB2WM8zEt-70" target="XQm2vaN1HJOsB2WM8zEt-57">
          <mxGeometry width="160" relative="1" as="geometry">
            <mxPoint x="510" y="780" as="sourcePoint" />
            <mxPoint x="511" y="760" as="targetPoint" />
            <Array as="points">
              <mxPoint x="570" y="805" />
              <mxPoint x="570" y="725" />
            </Array>
          </mxGeometry>
        </mxCell>
        <mxCell id="XQm2vaN1HJOsB2WM8zEt-75" value="" style="endArrow=open;endFill=1;endSize=12;html=1;rounded=0;exitX=0.5;exitY=1;exitDx=0;exitDy=0;entryX=0.5;entryY=0;entryDx=0;entryDy=0;" edge="1" parent="1" target="XQm2vaN1HJOsB2WM8zEt-54">
          <mxGeometry width="160" relative="1" as="geometry">
            <mxPoint x="499.63000000000005" y="840" as="sourcePoint" />
            <mxPoint x="499.91" y="870" as="targetPoint" />
          </mxGeometry>
        </mxCell>
        <mxCell id="XQm2vaN1HJOsB2WM8zEt-76" value="Show Order Status" style="rounded=1;whiteSpace=wrap;html=1;" vertex="1" parent="1">
          <mxGeometry x="271.57" y="880" width="66.87" height="40" as="geometry" />
        </mxCell>
        <mxCell id="XQm2vaN1HJOsB2WM8zEt-77" value="" style="endArrow=open;endFill=1;endSize=12;html=1;rounded=0;exitX=0;exitY=0.5;exitDx=0;exitDy=0;entryX=1;entryY=0.5;entryDx=0;entryDy=0;" edge="1" parent="1" source="XQm2vaN1HJOsB2WM8zEt-54" target="XQm2vaN1HJOsB2WM8zEt-76">
          <mxGeometry width="160" relative="1" as="geometry">
            <mxPoint x="509.63000000000005" y="850" as="sourcePoint" />
            <mxPoint x="510" y="890" as="targetPoint" />
          </mxGeometry>
        </mxCell>
        <mxCell id="XQm2vaN1HJOsB2WM8zEt-78" value="" style="ellipse;html=1;shape=endState;fillColor=#000000;strokeColor=#ff0000;" vertex="1" parent="1">
          <mxGeometry x="290" y="955" width="30" height="30" as="geometry" />
        </mxCell>
        <mxCell id="XQm2vaN1HJOsB2WM8zEt-79" value="" style="endArrow=open;endFill=1;endSize=12;html=1;rounded=0;exitX=0.5;exitY=1;exitDx=0;exitDy=0;entryX=0.5;entryY=0;entryDx=0;entryDy=0;" edge="1" parent="1" source="XQm2vaN1HJOsB2WM8zEt-76" target="XQm2vaN1HJOsB2WM8zEt-78">
          <mxGeometry width="160" relative="1" as="geometry">
            <mxPoint x="509.63000000000005" y="850" as="sourcePoint" />
            <mxPoint x="510" y="890" as="targetPoint" />
          </mxGeometry>
        </mxCell>
        <mxCell id="XQm2vaN1HJOsB2WM8zEt-80" value="No" style="text;html=1;align=center;verticalAlign=middle;whiteSpace=wrap;rounded=0;" vertex="1" parent="1">
          <mxGeometry x="440" y="230" width="60" height="30" as="geometry" />
        </mxCell>
        <mxCell id="XQm2vaN1HJOsB2WM8zEt-82" value="Yes" style="text;html=1;align=center;verticalAlign=middle;whiteSpace=wrap;rounded=0;" vertex="1" parent="1">
          <mxGeometry x="546.25" y="180" width="60" height="30" as="geometry" />
        </mxCell>
        <mxCell id="XQm2vaN1HJOsB2WM8zEt-83" value="Yes" style="text;html=1;align=center;verticalAlign=middle;whiteSpace=wrap;rounded=0;" vertex="1" parent="1">
          <mxGeometry x="420" y="512" width="60" height="30" as="geometry" />
        </mxCell>
        <mxCell id="XQm2vaN1HJOsB2WM8zEt-84" value="No" style="text;html=1;align=center;verticalAlign=middle;whiteSpace=wrap;rounded=0;" vertex="1" parent="1">
          <mxGeometry x="460" y="250" width="60" height="30" as="geometry" />
        </mxCell>
        <mxCell id="XQm2vaN1HJOsB2WM8zEt-86" value="No" style="text;html=1;align=center;verticalAlign=middle;whiteSpace=wrap;rounded=0;" vertex="1" parent="1">
          <mxGeometry x="418" y="570" width="60" height="30" as="geometry" />
        </mxCell>
        <mxCell id="XQm2vaN1HJOsB2WM8zEt-87" value="No" style="text;html=1;align=center;verticalAlign=middle;whiteSpace=wrap;rounded=0;" vertex="1" parent="1">
          <mxGeometry x="530" y="760" width="60" height="30" as="geometry" />
        </mxCell>
        <mxCell id="XQm2vaN1HJOsB2WM8zEt-88" value="Yes" style="text;html=1;align=center;verticalAlign=middle;whiteSpace=wrap;rounded=0;" vertex="1" parent="1">
          <mxGeometry x="483.75" y="840" width="60" height="30" as="geometry" />
        </mxCell>
        <mxCell id="HFTEXti-CHnC_BHoYLUk-1" value="" style="endArrow=open;endFill=1;endSize=12;html=1;rounded=0;exitX=0;exitY=0.5;exitDx=0;exitDy=0;entryX=0;entryY=0.5;entryDx=0;entryDy=0;" edge="1" parent="1" source="XQm2vaN1HJOsB2WM8zEt-43" target="XQm2vaN1HJOsB2WM8zEt-11">
          <mxGeometry width="160" relative="1" as="geometry">
            <mxPoint x="468" y="535" as="sourcePoint" />
            <mxPoint x="240" y="200" as="targetPoint" />
            <Array as="points">
              <mxPoint x="240" y="535" />
              <mxPoint x="230" y="205" />
            </Array>
          </mxGeometry>
        </mxCell>
      </root>
    </mxGraphModel>
  </diagram>
</mxfile>
